<mxfile host="app.diagrams.net" agent="Mozilla/5.0 (Windows NT 10.0; Win64; x64) AppleWebKit/537.36 (KHTML, like Gecko) Chrome/141.0.0.0 Safari/537.36" version="28.2.7">
  <diagram name="PÃ¡gina-1" id="AW_4SV1VjklhSY8sd2_t">
    <mxGraphModel dx="1042" dy="527" grid="0" gridSize="10" guides="1" tooltips="1" connect="1" arrows="1" fold="1" page="1" pageScale="1" pageWidth="1169" pageHeight="827" math="0" shadow="0">
      <root>
        <mxCell id="0" />
        <mxCell id="1" parent="0" />
        <mxCell id="UKE0n8psNcdYN7biPq4F-11" style="edgeStyle=orthogonalEdgeStyle;rounded=0;orthogonalLoop=1;jettySize=auto;html=1;exitX=0.5;exitY=0;exitDx=0;exitDy=0;exitPerimeter=0;entryX=0.5;entryY=0;entryDx=0;entryDy=0;" edge="1" parent="1" source="fFbLZVn89i1oZEoZOz1--1" target="UKE0n8psNcdYN7biPq4F-4">
          <mxGeometry relative="1" as="geometry" />
        </mxCell>
        <mxCell id="fFbLZVn89i1oZEoZOz1--1" value="Cliente&lt;div&gt;&lt;br&gt;&lt;/div&gt;" style="shape=umlActor;verticalLabelPosition=bottom;verticalAlign=top;html=1;outlineConnect=0;" parent="1" vertex="1">
          <mxGeometry x="70" y="153" width="30" height="50" as="geometry" />
        </mxCell>
        <mxCell id="UKE0n8psNcdYN7biPq4F-15" style="edgeStyle=orthogonalEdgeStyle;rounded=0;orthogonalLoop=1;jettySize=auto;html=1;exitX=0.5;exitY=1;exitDx=0;exitDy=0;entryX=0.5;entryY=0;entryDx=0;entryDy=0;" edge="1" parent="1" source="fFbLZVn89i1oZEoZOz1--17" target="UKE0n8psNcdYN7biPq4F-3">
          <mxGeometry relative="1" as="geometry" />
        </mxCell>
        <mxCell id="UKE0n8psNcdYN7biPq4F-16" style="edgeStyle=orthogonalEdgeStyle;rounded=0;orthogonalLoop=1;jettySize=auto;html=1;exitX=1;exitY=0.5;exitDx=0;exitDy=0;entryX=0;entryY=0.5;entryDx=0;entryDy=0;" edge="1" parent="1" source="fFbLZVn89i1oZEoZOz1--17" target="UKE0n8psNcdYN7biPq4F-4">
          <mxGeometry relative="1" as="geometry" />
        </mxCell>
        <mxCell id="UKE0n8psNcdYN7biPq4F-23" value="REST/HTTP(JSON)" style="edgeLabel;html=1;align=center;verticalAlign=middle;resizable=0;points=[];" vertex="1" connectable="0" parent="UKE0n8psNcdYN7biPq4F-16">
          <mxGeometry x="0.1536" y="-3" relative="1" as="geometry">
            <mxPoint as="offset" />
          </mxGeometry>
        </mxCell>
        <mxCell id="UKE0n8psNcdYN7biPq4F-17" style="edgeStyle=orthogonalEdgeStyle;rounded=0;orthogonalLoop=1;jettySize=auto;html=1;exitX=1;exitY=0.5;exitDx=0;exitDy=0;entryX=0;entryY=0.5;entryDx=0;entryDy=0;" edge="1" parent="1" source="fFbLZVn89i1oZEoZOz1--17" target="UKE0n8psNcdYN7biPq4F-5">
          <mxGeometry relative="1" as="geometry" />
        </mxCell>
        <mxCell id="UKE0n8psNcdYN7biPq4F-18" style="edgeStyle=orthogonalEdgeStyle;rounded=0;orthogonalLoop=1;jettySize=auto;html=1;exitX=1;exitY=0.5;exitDx=0;exitDy=0;entryX=0;entryY=0.5;entryDx=0;entryDy=0;" edge="1" parent="1" source="fFbLZVn89i1oZEoZOz1--17" target="UKE0n8psNcdYN7biPq4F-6">
          <mxGeometry relative="1" as="geometry" />
        </mxCell>
        <mxCell id="UKE0n8psNcdYN7biPq4F-19" style="edgeStyle=orthogonalEdgeStyle;rounded=0;orthogonalLoop=1;jettySize=auto;html=1;exitX=1;exitY=0.5;exitDx=0;exitDy=0;entryX=0;entryY=0.5;entryDx=0;entryDy=0;" edge="1" parent="1" source="fFbLZVn89i1oZEoZOz1--17" target="UKE0n8psNcdYN7biPq4F-9">
          <mxGeometry relative="1" as="geometry" />
        </mxCell>
        <mxCell id="UKE0n8psNcdYN7biPq4F-24" value="REST/HTTP(JSON)" style="edgeLabel;html=1;align=center;verticalAlign=middle;resizable=0;points=[];" vertex="1" connectable="0" parent="UKE0n8psNcdYN7biPq4F-19">
          <mxGeometry x="-0.2758" y="3" relative="1" as="geometry">
            <mxPoint as="offset" />
          </mxGeometry>
        </mxCell>
        <mxCell id="fFbLZVn89i1oZEoZOz1--17" value="Plataforma central (API Unificada)" style="rounded=0;whiteSpace=wrap;html=1;" parent="1" vertex="1">
          <mxGeometry x="213" y="252" width="123" height="40" as="geometry" />
        </mxCell>
        <mxCell id="UKE0n8psNcdYN7biPq4F-13" style="edgeStyle=orthogonalEdgeStyle;rounded=0;orthogonalLoop=1;jettySize=auto;html=1;exitX=0.5;exitY=0.5;exitDx=0;exitDy=0;exitPerimeter=0;entryX=0;entryY=0.5;entryDx=0;entryDy=0;" edge="1" parent="1" source="fFbLZVn89i1oZEoZOz1--23" target="fFbLZVn89i1oZEoZOz1--17">
          <mxGeometry relative="1" as="geometry" />
        </mxCell>
        <mxCell id="UKE0n8psNcdYN7biPq4F-21" value="HTTP/HTTPS" style="edgeLabel;html=1;align=center;verticalAlign=middle;resizable=0;points=[];" vertex="1" connectable="0" parent="UKE0n8psNcdYN7biPq4F-13">
          <mxGeometry x="-0.1608" y="1" relative="1" as="geometry">
            <mxPoint as="offset" />
          </mxGeometry>
        </mxCell>
        <mxCell id="fFbLZVn89i1oZEoZOz1--23" value="Empleado" style="shape=umlActor;verticalLabelPosition=bottom;verticalAlign=top;html=1;outlineConnect=0;" parent="1" vertex="1">
          <mxGeometry x="70" y="359" width="30" height="50" as="geometry" />
        </mxCell>
        <mxCell id="UKE0n8psNcdYN7biPq4F-12" style="edgeStyle=orthogonalEdgeStyle;rounded=0;orthogonalLoop=1;jettySize=auto;html=1;exitX=0.5;exitY=0.5;exitDx=0;exitDy=0;exitPerimeter=0;entryX=0;entryY=0.5;entryDx=0;entryDy=0;" edge="1" parent="1" source="fFbLZVn89i1oZEoZOz1--24" target="fFbLZVn89i1oZEoZOz1--17">
          <mxGeometry relative="1" as="geometry" />
        </mxCell>
        <mxCell id="UKE0n8psNcdYN7biPq4F-22" value="HTTP/HTTPS" style="edgeLabel;html=1;align=center;verticalAlign=middle;resizable=0;points=[];" vertex="1" connectable="0" parent="UKE0n8psNcdYN7biPq4F-12">
          <mxGeometry x="-0.3344" y="1" relative="1" as="geometry">
            <mxPoint x="25" y="-2" as="offset" />
          </mxGeometry>
        </mxCell>
        <mxCell id="fFbLZVn89i1oZEoZOz1--24" value="Gestor" style="shape=umlActor;verticalLabelPosition=bottom;verticalAlign=top;html=1;outlineConnect=0;" parent="1" vertex="1">
          <mxGeometry x="70" y="247" width="30" height="50" as="geometry" />
        </mxCell>
        <mxCell id="UKE0n8psNcdYN7biPq4F-3" value="Base de datos" style="rounded=0;whiteSpace=wrap;html=1;" vertex="1" parent="1">
          <mxGeometry x="213" y="323" width="120" height="36" as="geometry" />
        </mxCell>
        <mxCell id="UKE0n8psNcdYN7biPq4F-4" value="Servicio acceso" style="rounded=0;whiteSpace=wrap;html=1;" vertex="1" parent="1">
          <mxGeometry x="472" y="165" width="120" height="38" as="geometry" />
        </mxCell>
        <mxCell id="UKE0n8psNcdYN7biPq4F-20" style="edgeStyle=orthogonalEdgeStyle;rounded=0;orthogonalLoop=1;jettySize=auto;html=1;exitX=1;exitY=0.5;exitDx=0;exitDy=0;entryX=0;entryY=0.5;entryDx=0;entryDy=0;" edge="1" parent="1" source="UKE0n8psNcdYN7biPq4F-5" target="UKE0n8psNcdYN7biPq4F-7">
          <mxGeometry relative="1" as="geometry" />
        </mxCell>
        <mxCell id="UKE0n8psNcdYN7biPq4F-5" value="Servicio IoT" style="rounded=0;whiteSpace=wrap;html=1;" vertex="1" parent="1">
          <mxGeometry x="472" y="234" width="120" height="38" as="geometry" />
        </mxCell>
        <mxCell id="UKE0n8psNcdYN7biPq4F-6" value="Servicio CRM" style="rounded=0;whiteSpace=wrap;html=1;" vertex="1" parent="1">
          <mxGeometry x="472" y="300" width="120" height="38" as="geometry" />
        </mxCell>
        <mxCell id="UKE0n8psNcdYN7biPq4F-7" value="Sistema ERP" style="rounded=0;whiteSpace=wrap;html=1;" vertex="1" parent="1">
          <mxGeometry x="630" y="234" width="120" height="38" as="geometry" />
        </mxCell>
        <mxCell id="UKE0n8psNcdYN7biPq4F-8" value="Navegador web" style="rounded=0;whiteSpace=wrap;html=1;" vertex="1" parent="1">
          <mxGeometry x="214.5" y="184" width="120" height="38" as="geometry" />
        </mxCell>
        <mxCell id="UKE0n8psNcdYN7biPq4F-9" value="Pasarela de pagos" style="rounded=0;whiteSpace=wrap;html=1;" vertex="1" parent="1">
          <mxGeometry x="472" y="365" width="120" height="38" as="geometry" />
        </mxCell>
        <mxCell id="UKE0n8psNcdYN7biPq4F-14" value="" style="endArrow=classic;startArrow=classic;html=1;rounded=0;entryX=0.5;entryY=1;entryDx=0;entryDy=0;exitX=0.5;exitY=0;exitDx=0;exitDy=0;" edge="1" parent="1" source="fFbLZVn89i1oZEoZOz1--17" target="UKE0n8psNcdYN7biPq4F-8">
          <mxGeometry width="50" height="50" relative="1" as="geometry">
            <mxPoint x="300" y="323" as="sourcePoint" />
            <mxPoint x="350" y="273" as="targetPoint" />
          </mxGeometry>
        </mxCell>
      </root>
    </mxGraphModel>
  </diagram>
</mxfile>
